<svg width="87" height="32" viewBox="0 0 87 32" fill="none" xmlns="http://www.w3.org/2000/svg">
<g id="Logo" clip-path="url(#clip0_995_6814)">
<g id="&#208;&#161;&#208;&#187;&#208;&#190;&#208;&#185;_x0020_1">
<path id="Vector" fill-rule="evenodd" clip-rule="evenodd" d="M0.00164381 23.5026L0 23.5009V8.31706L0.0076711 8.30939C0.197805 3.68919 4.00486 0.000488281 8.67218 0.000488281H77.3543C82.1427 0.000488281 86.0259 3.88371 86.0259 8.67267V15.918C86.0259 18.2391 85.0999 20.4358 83.461 22.0746L76.076 29.4608C74.4453 31.0915 72.2503 32.0005 69.9435 32.0005H8.67218C3.9413 32.0005 0.0947929 28.2115 0.00164381 23.5026ZM8.67218 1.36211H77.3543C81.3915 1.36211 84.6643 4.63548 84.6643 8.67267V15.918C84.6643 17.9498 83.8353 19.787 82.4978 21.1119L75.1127 28.4975C73.79 29.8208 71.9621 30.6389 69.9435 30.6389H8.67218C4.63499 30.6389 1.36162 27.366 1.36162 23.3289C1.36162 23.2067 1.36491 23.085 1.37094 22.9645L1.36162 22.9552V8.88143L1.36491 8.87814C1.36272 8.80965 1.36162 8.74116 1.36162 8.67267C1.36162 4.63548 4.63499 1.36211 8.67218 1.36211Z" fill="url(#paint0_linear_995_6814)"/>
<path id="Vector_2" d="M8.67188 8.67253H11.9063V14.6543L14.3644 8.67253H17.5271L14.8164 15.2867L17.6536 23.3106H14.3644L12.2499 16.8406L11.9063 17.4192V23.3106H8.67188V8.67253ZM18.9183 8.67253H25.4968V10.8769H22.1533V14.5097H24.7012V16.7508H22.1533V21.1238H25.533V23.3106H18.9183V8.67253ZM30.8819 23.5276C29.4847 23.5276 28.4452 23.1567 27.7647 22.4159C27.0836 21.6751 26.7198 20.4975 26.6716 18.8828L29.4365 18.4674C29.4485 19.3951 29.5597 20.0608 29.7707 20.4641C29.9816 20.8679 30.2978 21.0696 30.7192 21.0696C31.2616 21.0696 31.5329 20.714 31.5329 20.0033C31.5329 19.4373 31.403 18.9491 31.1444 18.5398C30.8852 18.1299 30.4786 17.6905 29.9241 17.2203L28.6589 16.1179C28.0326 15.588 27.5477 15.0248 27.2047 14.4281C26.8612 13.8319 26.6897 13.124 26.6897 12.3048C26.6897 11.0758 27.054 10.13 27.7828 9.46759C28.5115 8.80459 29.5148 8.47363 30.7915 8.47363C32.1772 8.47363 33.1202 8.87691 33.6199 9.68457C34.1202 10.4917 34.3881 11.4736 34.4243 12.6303L31.6408 12.9733C31.6172 12.2144 31.5476 11.6692 31.4331 11.3377C31.3192 11.0067 31.0688 10.8407 30.6836 10.8407C30.4063 10.8407 30.1926 10.9585 30.0419 11.1936C29.8912 11.4281 29.8156 11.6906 29.8156 11.9793C29.8156 12.4736 29.9274 12.8889 30.1499 13.2264C30.3729 13.564 30.7312 13.9492 31.2255 14.3831L32.4364 15.4494C33.1591 16.0636 33.7191 16.7146 34.1169 17.4012C34.5142 18.0877 34.7136 18.9009 34.7136 19.8406C34.7136 20.5277 34.5536 21.1507 34.2342 21.7112C33.9153 22.2718 33.4665 22.7145 32.8879 23.0394C32.3098 23.3649 31.6408 23.5276 30.8819 23.5276ZM37.6051 11.0758H35.4002V8.67253H43.0444V11.0758H40.8582V23.3106H37.6051V11.0758ZM44.3277 8.67253H50.9057V10.8769H47.5627V14.5097H50.1106V16.7508H47.5627V21.1238H50.9418V23.3106H44.3277V8.67253ZM56.2913 23.5276C54.8936 23.5276 53.8547 23.1567 53.1736 22.4159C52.493 21.6751 52.1287 20.4975 52.0805 18.8828L54.8453 18.4674C54.8579 19.3951 54.9692 20.0608 55.1796 20.4641C55.3905 20.8679 55.7072 21.0696 56.1286 21.0696C56.6705 21.0696 56.9417 20.714 56.9417 20.0033C56.9417 19.4373 56.8124 18.9491 56.5532 18.5398C56.2946 18.1299 55.8881 17.6905 55.3335 17.2203L54.0684 16.1179C53.4421 15.588 52.9571 15.0248 52.6136 14.4281C52.2706 13.8319 52.0985 13.124 52.0985 12.3048C52.0985 11.0758 52.4629 10.13 53.1922 9.46759C53.921 8.80459 54.9237 8.47363 56.2009 8.47363C57.5867 8.47363 58.5291 8.87691 59.0294 9.68457C59.5291 10.4917 59.7976 11.4736 59.8332 12.6303L57.0502 12.9733C57.0261 12.2144 56.9571 11.6692 56.8426 11.3377C56.728 11.0067 56.4782 10.8407 56.0924 10.8407C55.8157 10.8407 55.6015 10.9585 55.4508 11.1936C55.3007 11.4281 55.2251 11.6906 55.2251 11.9793C55.2251 12.4736 55.3363 12.8889 55.5593 13.2264C55.7823 13.564 56.1407 13.9492 56.6349 14.3831L57.8458 15.4494C58.5686 16.0636 59.1286 16.7146 59.5264 17.4012C59.9236 18.0877 60.1225 18.9009 60.1225 19.8406C60.1225 20.5277 59.9631 21.1507 59.6436 21.7112C59.3242 22.2718 58.8759 22.7145 58.2973 23.0394C57.7193 23.3649 57.0502 23.5276 56.2913 23.5276ZM61.7132 8.67253H64.9476V23.3106H61.7132V8.67253Z" fill="#2B2A29"/>
<path id="Vector_3" d="M67.3789 8.67236H68.74V13.2745L70.981 8.67236H72.2462L70.3186 12.9731L72.5596 18.4311H71.2342L69.3668 13.8531L68.74 14.9851V18.4311H67.3789V8.67236ZM73.0413 17.4552L75.9086 9.64824H73.2221V8.67236H77.3546V9.26249L74.3306 17.4552H77.3546V18.4311H73.0413V17.4552Z" fill="#2B2A29"/>
<path id="Vector_4" d="M70.6139 20.0757H67.3789V23.3107H70.6139V20.0757Z" fill="#2B2A29"/>
</g>
</g>
<defs>
<linearGradient id="paint0_linear_995_6814" x1="55.9053" y1="30.6389" x2="77.3543" y2="1.36211" gradientUnits="userSpaceOnUse">
<stop stop-color="#594B97"/>
<stop offset="1" stop-color="#E5097F"/>
</linearGradient>
<clipPath id="clip0_995_6814">
<rect width="86.0274" height="32" fill="white"/>
</clipPath>
</defs>
</svg>
